<?xml version="1.0" standalone="no"?>
<!DOCTYPE svg PUBLIC "-//W3C//DTD SVG 20010904//EN"
 "http://www.w3.org/TR/2001/REC-SVG-20010904/DTD/svg10.dtd">
<svg version="1.0" xmlns="http://www.w3.org/2000/svg"
 width="400.000000pt" height="400.000000pt" viewBox="0 0 400.000000 400.000000"
 preserveAspectRatio="xMidYMid meet">
<metadata>
Created by potrace 1.14, written by Peter Selinger 2001-2017
</metadata>
<g transform="translate(0.000000,400.000000) scale(0.100000,-0.100000)"
fill="#000000" stroke="none">
<path d="M0 2000 l0 -2000 2000 0 2000 0 0 2000 0 2000 -2000 0 -2000 0 0
-2000z m1279 538 l23 -36 47 33 c77 55 93 54 126 -1 l18 -32 61 40 c33 21 67
37 75 36 9 -2 25 -20 36 -40 l20 -36 50 33 c96 63 107 59 154 -65 35 -89 41
-174 17 -231 -9 -21 -11 -42 -6 -60 7 -23 3 -32 -26 -60 -33 -32 -34 -32 -34
-10 0 13 -5 41 -11 62 -10 31 -9 45 5 78 21 55 20 109 -4 178 -11 31 -21 58
-24 60 -8 8 -45 -16 -126 -83 -43 -35 -87 -64 -98 -64 -10 0 -43 -7 -73 -16
-41 -12 -64 -27 -96 -62 -24 -26 -43 -50 -43 -53 0 -11 -105 -56 -155 -67 -27
-6 -94 -14 -147 -17 -94 -7 -98 -8 -98 -30 0 -13 4 -26 9 -29 8 -5 13 -23 24
-86 9 -46 61 -78 205 -125 62 -21 82 -31 78 -42 -3 -8 -6 -23 -6 -33 0 -13 -5
-17 -19 -13 -15 4 -20 -2 -26 -29 -3 -18 -11 -45 -17 -60 -10 -27 -11 -27 -40
-12 -24 12 -29 20 -24 37 4 12 9 37 13 54 5 30 3 34 -30 48 -47 19 -47 19 -47
-10 0 -18 -5 -25 -19 -25 -12 0 -22 -9 -26 -22 -16 -63 -29 -98 -34 -98 -3 0
-17 9 -30 19 -23 18 -24 20 -11 65 14 52 11 58 -37 74 -28 9 -32 8 -37 -13 -3
-12 -15 -25 -26 -28 -13 -3 -20 -13 -20 -31 0 -20 -11 -57 -25 -84 -1 -1 -16
5 -32 13 l-31 15 14 47 c19 61 19 59 -23 76 -43 17 -53 14 -53 -14 0 -12 -7
-19 -20 -19 -14 0 -20 -7 -20 -24 0 -13 -7 -40 -15 -60 -15 -36 -16 -36 -44
-22 -28 15 -28 17 -18 60 5 24 7 50 4 58 -3 8 -34 25 -69 38 -106 38 -168 93
-168 148 0 13 -9 44 -21 69 -38 84 0 153 83 153 71 0 231 22 268 37 19 8 60
42 91 74 58 60 114 91 185 103 25 5 55 20 80 42 62 55 186 135 203 132 9 -2
27 -20 40 -40z m441 -528 l0 -40 -96 0 -95 0 3 -37 3 -38 68 -3 67 -3 0 -39 0
-40 -70 0 -70 0 0 -80 0 -80 -35 0 -35 0 0 200 0 200 130 0 130 0 0 -40z m893
31 c14 -5 36 -21 51 -36 22 -22 26 -35 26 -80 0 -46 -5 -60 -29 -87 -24 -27
-36 -32 -90 -36 l-61 -4 0 -74 0 -74 -40 0 -40 0 0 200 0 200 79 0 c44 0 91
-4 104 -9z m877 -98 l0 -107 43 42 c37 37 48 42 87 42 l44 0 -58 -59 -59 -60
68 -75 67 -76 -49 0 c-47 0 -53 3 -97 50 l-46 49 0 -49 0 -50 -40 0 -40 0 0
200 0 200 40 0 40 0 0 -107z m-1650 -103 c0 -67 3 -83 20 -100 24 -24 48 -25
78 -4 20 14 22 24 22 100 l0 84 40 0 41 0 -3 -132 -3 -133 -103 -3 c-102 -2
-104 -2 -133 27 -28 29 -29 32 -29 135 l0 106 35 0 35 0 0 -80z m490 39 l0
-40 -35 7 c-25 4 -43 1 -60 -10 -23 -15 -25 -22 -25 -101 l0 -85 -40 0 -40 0
0 134 0 134 100 1 100 0 0 -40z m616 7 l34 -34 0 -100 0 -100 -92 0 c-109 -1
-138 15 -138 75 0 47 38 81 101 89 54 7 62 19 25 35 -24 11 -37 9 -100 -16
-16 -7 -17 -5 -11 16 17 58 32 69 91 69 50 0 59 -3 90 -34z m345 24 c14 -8 19
-21 19 -50 l0 -39 -35 15 c-51 21 -81 18 -104 -12 -12 -15 -21 -32 -21 -39 0
-7 9 -24 21 -39 23 -30 53 -33 104 -12 l35 15 0 -40 c0 -34 -4 -41 -27 -50
-16 -6 -52 -9 -82 -6 -47 3 -59 9 -88 40 -29 32 -33 44 -33 90 0 59 16 89 64
118 34 21 115 26 147 9z"/>
<path d="M1152 2448 c-67 -47 -77 -62 -34 -52 88 19 128 46 116 78 -9 22 -12
21 -82 -26z"/>
<path d="M1367 2463 c-20 -16 -48 -36 -62 -46 -15 -11 -25 -20 -23 -22 2 -2
26 1 55 7 56 11 100 46 90 72 -9 22 -19 20 -60 -11z"/>
<path d="M1555 2459 c-22 -16 -51 -38 -65 -49 l-25 -21 40 7 c65 10 110 37
113 67 4 35 -12 34 -63 -4z"/>
<path d="M925 2323 c-56 -17 -153 -105 -122 -111 33 -7 91 21 139 66 69 64 66
71 -17 45z"/>
<path d="M1120 2325 c-51 -16 -160 -115 -126 -115 59 0 112 31 175 103 28 31
20 33 -49 12z"/>
<path d="M1306 2321 c-58 -20 -144 -103 -113 -109 31 -6 100 28 145 71 63 61
56 69 -32 38z"/>
<path d="M432 2123 c-48 -5 -63 -24 -40 -51 15 -17 30 -66 37 -124 2 -10 64
-44 126 -67 l58 -22 -32 36 c-17 20 -31 47 -31 60 0 14 -9 44 -19 68 -11 23
-21 55 -23 72 -3 32 -8 34 -76 28z"/>
<path d="M623 2123 c-49 -5 -54 -18 -27 -72 9 -18 19 -50 22 -73 5 -39 8 -42
76 -73 39 -19 82 -37 96 -41 21 -6 20 -3 -13 28 -29 27 -37 43 -37 69 0 19 -9
51 -20 72 -11 20 -20 50 -20 67 0 23 -4 30 -17 28 -10 -1 -37 -3 -60 -5z"/>
<path d="M822 2123 c-48 -5 -63 -24 -39 -51 8 -9 19 -41 24 -71 7 -50 11 -56
54 -83 26 -15 69 -35 95 -43 46 -13 48 -13 29 3 -34 28 -55 65 -55 95 0 15 -9
45 -20 67 -11 22 -20 51 -20 65 0 14 -5 24 -12 23 -7 -1 -32 -3 -56 -5z"/>
<path d="M2510 1925 l0 -45 38 0 c41 0 62 14 62 41 0 28 -29 49 -66 49 -34 0
-34 0 -34 -45z"/>
<path d="M2848 1763 c-23 -6 -30 -29 -12 -44 21 -17 64 4 64 31 0 20 -14 23
-52 13z"/>
</g>
</svg>
